<svg xmlns="http://www.w3.org/2000/svg" width="800" height="600"><rect width="800" height="600" x="0" y="0" fill="#FFFFFF" id="background"/><g transform="translate(100,50)" id="visualization"><g id="axis"><g transform="translate(0,500)" fill="none" font-size="10" font-family="sans-serif" text-anchor="middle"><path class="domain" stroke="currentColor" d="M0,6V0H650V6"/><g class="tick" opacity="1" transform="translate(0,0)"><line stroke="currentColor" y2="6"/><text fill="currentColor" y="9" dy="0.71em">2.6</text></g><g class="tick" opacity="1" transform="translate(46,0)"><line stroke="currentColor" y2="6"/><text fill="currentColor" y="9" dy="0.71em">2.8</text></g><g class="tick" opacity="1" transform="translate(93,0)"><line stroke="currentColor" y2="6"/><text fill="currentColor" y="9" dy="0.71em">3.0</text></g><g class="tick" opacity="1" transform="translate(139,0)"><line stroke="currentColor" y2="6"/><text fill="currentColor" y="9" dy="0.71em">3.2</text></g><g class="tick" opacity="1" transform="translate(186,0)"><line stroke="currentColor" y2="6"/><text fill="currentColor" y="9" dy="0.71em">3.4</text></g><g class="tick" opacity="1" transform="translate(232,0)"><line stroke="currentColor" y2="6"/><text fill="currentColor" y="9" dy="0.71em">3.6</text></g><g class="tick" opacity="1" transform="translate(279,0)"><line stroke="currentColor" y2="6"/><text fill="currentColor" y="9" dy="0.71em">3.8</text></g><g class="tick" opacity="1" transform="translate(325,0)"><line stroke="currentColor" y2="6"/><text fill="currentColor" y="9" dy="0.71em">4.0</text></g><g class="tick" opacity="1" transform="translate(371,0)"><line stroke="currentColor" y2="6"/><text fill="currentColor" y="9" dy="0.71em">4.2</text></g><g class="tick" opacity="1" transform="translate(418,0)"><line stroke="currentColor" y2="6"/><text fill="currentColor" y="9" dy="0.71em">4.4</text></g><g class="tick" opacity="1" transform="translate(464,0)"><line stroke="currentColor" y2="6"/><text fill="currentColor" y="9" dy="0.71em">4.6</text></g><g class="tick" opacity="1" transform="translate(511,0)"><line stroke="currentColor" y2="6"/><text fill="currentColor" y="9" dy="0.71em">4.8</text></g><g class="tick" opacity="1" transform="translate(557,0)"><line stroke="currentColor" y2="6"/><text fill="currentColor" y="9" dy="0.71em">5.0</text></g><g class="tick" opacity="1" transform="translate(604,0)"><line stroke="currentColor" y2="6"/><text fill="currentColor" y="9" dy="0.71em">5.2</text></g><g class="tick" opacity="1" transform="translate(650,0)"><line stroke="currentColor" y2="6"/><text fill="currentColor" y="9" dy="0.71em">5.4</text></g></g></g><g id="viz"><g id="East Coast" transform="translate(0,0)"><text x="-4" y="31.25" text-anchor="end" dominant-baseline="middle" style="font-family: Arial, sans-serif; font-size: 10px; fill: black; font-weight: normal;">East Coast</text><rect x="66" y="0" width="308" height="62.5" fill="#cccccc"/><line x1="0" y1="0" x2="650" y2="0" style="stroke: rgb(204, 204, 204);"/></g><g id="New England" transform="translate(0,62.5)"><text x="-4" y="31.25" text-anchor="end" dominant-baseline="middle" style="font-family: Arial, sans-serif; font-size: 10px; fill: black; font-weight: normal;">New England</text><rect x="58" y="0" width="339" height="62.5" fill="#cccccc"/><line x1="0" y1="0" x2="650" y2="0" style="stroke: rgb(204, 204, 204);"/></g><g id="Central Atlantic" transform="translate(0,125)"><text x="-4" y="31.25" text-anchor="end" dominant-baseline="middle" style="font-family: Arial, sans-serif; font-size: 10px; fill: black; font-weight: normal;">Central Atlantic</text><rect x="87" y="0" width="306" height="62.5" fill="#cccccc"/><line x1="0" y1="0" x2="650" y2="0" style="stroke: rgb(204, 204, 204);"/></g><g id="Lower Atlantic" transform="translate(0,187.5)"><text x="-4" y="31.25" text-anchor="end" dominant-baseline="middle" style="font-family: Arial, sans-serif; font-size: 10px; fill: black; font-weight: normal;">Lower Atlantic</text><rect x="54" y="0" width="302" height="62.5" fill="#cccccc"/><line x1="0" y1="0" x2="650" y2="0" style="stroke: rgb(204, 204, 204);"/></g><g id="Midwest" transform="translate(0,250)"><text x="-4" y="31.25" text-anchor="end" dominant-baseline="middle" style="font-family: Arial, sans-serif; font-size: 10px; fill: black; font-weight: normal;">Midwest</text><rect x="47" y="0" width="301" height="62.5" fill="#cccccc"/><line x1="0" y1="0" x2="650" y2="0" style="stroke: rgb(204, 204, 204);"/></g><g id="Gulf Coast" transform="translate(0,312.5)"><text x="-4" y="31.25" text-anchor="end" dominant-baseline="middle" style="font-family: Arial, sans-serif; font-size: 10px; fill: black; font-weight: normal;">Gulf Coast</text><rect x="22" y="0" width="306" height="62.5" fill="#cccccc"/><line x1="0" y1="0" x2="650" y2="0" style="stroke: rgb(204, 204, 204);"/></g><g id="Rocky Mountain" transform="translate(0,375)"><text x="-4" y="31.25" text-anchor="end" dominant-baseline="middle" style="font-family: Arial, sans-serif; font-size: 10px; fill: black; font-weight: normal;">Rocky Mountain</text><rect x="104" y="0" width="272" height="62.5" fill="#cccccc"/><line x1="0" y1="0" x2="650" y2="0" style="stroke: rgb(204, 204, 204);"/></g><g id="West Coast" transform="translate(0,437.5)"><text x="-4" y="31.25" text-anchor="end" dominant-baseline="middle" style="font-family: Arial, sans-serif; font-size: 10px; fill: black; font-weight: normal;">West Coast</text><rect x="224" y="0" width="412" height="62.5" fill="#cccccc"/><line x1="0" y1="0" x2="650" y2="0" style="stroke: rgb(204, 204, 204);"/></g></g></g></svg>